<?xml version="1.0" encoding="UTF-8" standalone="no"?>
<!-- Created with Inkscape (http://www.inkscape.org/) -->

<svg
   xmlns:dc="http://purl.org/dc/elements/1.1/"
   xmlns:cc="http://creativecommons.org/ns#"
   xmlns:rdf="http://www.w3.org/1999/02/22-rdf-syntax-ns#"
   xmlns:svg="http://www.w3.org/2000/svg"
   xmlns="http://www.w3.org/2000/svg"
   xmlns:sodipodi="http://sodipodi.sourceforge.net/DTD/sodipodi-0.dtd"
   xmlns:inkscape="http://www.inkscape.org/namespaces/inkscape"
   width="35.524445mm"
   height="35.523933mm"
   viewBox="0 0 35.524444 35.523933"
   version="1.1"
   id="svg8"
   inkscape:version="0.92.2 5c3e80d, 2017-08-06"
   sodipodi:docname="3.svg">
  <defs
     id="defs2" />
  <sodipodi:namedview
     id="base"
     pagecolor="#ffffff"
     bordercolor="#666666"
     borderopacity="1.0"
     inkscape:pageopacity="0.0"
     inkscape:pageshadow="2"
     inkscape:zoom="1.3178148"
     inkscape:cx="109.84603"
     inkscape:cy="-18.683899"
     inkscape:document-units="mm"
     inkscape:current-layer="layer1"
     showgrid="false"
     inkscape:window-width="1440"
     inkscape:window-height="851"
     inkscape:window-x="0"
     inkscape:window-y="1"
     inkscape:window-maximized="1" />
  <metadata
     id="metadata5">
    <rdf:RDF>
      <cc:Work
         rdf:about="">
        <dc:format>image/svg+xml</dc:format>
        <dc:type
           rdf:resource="http://purl.org/dc/dcmitype/StillImage" />
        <dc:title></dc:title>
      </cc:Work>
    </rdf:RDF>
  </metadata>
  <g
     inkscape:label="Layer 1"
     inkscape:groupmode="layer"
     id="layer1"
     transform="translate(-125.41773,-153.07576)">
    <rect
       ry="4.7624998"
       style="fill:none;stroke:#000000;stroke-width:2.64583325;stroke-miterlimit:4;stroke-dasharray:none;stroke-opacity:1"
       y="74.297607"
       x="84.817429"
       height="32.878357"
       width="32.878357"
       id="rect821" />
    <circle
       r="8.659399"
       cy="90.736786"
       cx="101.25661"
       id="circle823"
       style="fill:none;stroke:#000000;stroke-width:2.64583325;stroke-miterlimit:4;stroke-dasharray:none;stroke-opacity:1" />
    <rect
       id="rect10"
       width="32.878357"
       height="32.878357"
       x="-31.227915"
       y="138.76724"
       style="fill:#ffffff;fill-opacity:1;stroke:#000000;stroke-width:2.64583325;stroke-miterlimit:4;stroke-dasharray:none;stroke-opacity:1"
       ry="11.189858" />
    <circle
       style="fill:none;stroke:#000000;stroke-width:2.64583325;stroke-miterlimit:4;stroke-dasharray:none;stroke-opacity:1"
       id="path819"
       cx="-14.78873"
       cy="155.20642"
       r="8.659399" />
    <rect
       style="fill:#0600a5;fill-opacity:1;stroke:#fffffd;stroke-width:2.64583325;stroke-miterlimit:4;stroke-dasharray:none;stroke-opacity:1"
       id="rect898"
       width="425.20154"
       height="314.37878"
       x="-87.881668"
       y="206.67734"
       ry="4.7624998" />
    <path
       style="fill:#ffffff;fill-opacity:1;stroke:#ffffff;stroke-width:2.64583325;stroke-miterlimit:4;stroke-dasharray:none;stroke-opacity:1"
       d="m 95.80197,349.97374 c -6.199182,0 -11.190015,4.99083 -11.190015,11.19002 v 10.49858 c 0,6.19918 4.990833,11.1895 11.190015,11.1895 h 10.49858 c 6.19919,0 11.19002,-4.99032 11.19002,-11.1895 v -10.49858 c 0,-6.19919 -4.99083,-11.19002 -11.19002,-11.19002 z m 5.24929,7.77989 a 8.6593988,8.6593988 0 0 1 8.65942,8.65942 8.6593988,8.6593988 0 0 1 -8.65942,8.65942 8.6593988,8.6593988 0 0 1 -8.659418,-8.65942 8.6593988,8.6593988 0 0 1 8.659418,-8.65942 z"
       id="rect900"
       inkscape:connector-curvature="0" />
    <path
       inkscape:connector-curvature="0"
       id="path905"
       d="m 164.82417,350.50063 c -6.19919,0 -11.19002,4.99083 -11.19002,11.19002 v 10.49858 c 0,6.19918 4.99083,11.1895 11.19002,11.1895 h 10.49858 c 6.19919,0 11.19002,-4.99032 11.19002,-11.1895 v -10.49858 c 0,-6.19919 -4.99083,-11.19002 -11.19002,-11.19002 z m 5.24929,7.77989 a 8.6593988,8.6593988 0 0 1 8.65942,8.65942 8.6593988,8.6593988 0 0 1 -8.65942,8.65942 8.6593988,8.6593988 0 0 1 -8.65942,-8.65942 8.6593988,8.6593988 0 0 1 8.65942,-8.65942 z"
       style="fill:#ffffff;fill-opacity:1;stroke:#ffffff;stroke-width:2.64583325;stroke-miterlimit:4;stroke-dasharray:none;stroke-opacity:1" />
    <ellipse
       style="fill:#0600a5;fill-opacity:1;stroke:none;stroke-width:4.29349518;stroke-miterlimit:4;stroke-dasharray:none;stroke-opacity:1"
       id="path907"
       cx="178.6949"
       cy="357.03461"
       rx="2.1166666"
       ry="2.1166668" />
    <path
       style="fill:#ffffff;fill-opacity:1;stroke:#ffffff;stroke-width:2.64583325;stroke-miterlimit:4;stroke-dasharray:none;stroke-opacity:1"
       d="m 223.67039,351.16934 c -6.19919,0 -11.19002,4.99083 -11.19002,11.19002 v 10.49858 c 0,6.19918 4.99083,11.1895 11.19002,11.1895 h 10.49858 c 6.19919,0 11.19002,-4.99032 11.19002,-11.1895 v -10.49858 c 0,-6.19919 -4.99083,-11.19002 -11.19002,-11.19002 z m 5.24929,7.77989 a 8.6593988,8.6593988 0 0 1 8.65942,8.65942 8.6593988,8.6593988 0 0 1 -8.65942,8.65942 8.6593988,8.6593988 0 0 1 -8.65942,-8.65942 8.6593988,8.6593988 0 0 1 8.65942,-8.65942 z"
       id="path916"
       inkscape:connector-curvature="0" />
    <ellipse
       ry="1.7197918"
       rx="1.7197917"
       cy="357.90524"
       cx="238.11902"
       id="ellipse918"
       style="fill:#0600a5;fill-opacity:1;stroke:none;stroke-width:3.48846483;stroke-miterlimit:4;stroke-dasharray:none;stroke-opacity:1" />
    <path
       style="fill:#ffffff;fill-opacity:1;stroke:#ffffff;stroke-width:2.64583325;stroke-miterlimit:4;stroke-dasharray:none;stroke-opacity:1"
       d="m 127.02048,429.13508 c -6.19919,0 -11.19002,4.99081 -11.19002,11.19002 v 10.49856 c 0,6.19919 4.99083,11.18952 11.19002,11.18952 h 10.49858 c 6.19919,0 11.19002,-4.99033 11.19002,-11.18952 V 440.3251 c 0,-6.19921 -4.99083,-11.19002 -11.19002,-11.19002 z m 14.92932,2.30063 a 3.175,3.1750005 0 0 1 3.175,3.175 3.175,3.1750005 0 0 1 -3.175,3.175 3.175,3.1750005 0 0 1 -3.175,-3.175 3.175,3.1750005 0 0 1 3.175,-3.175 z m -9.68003,5.47926 a 8.6593986,8.6593986 0 0 1 8.65942,8.65941 8.6593986,8.6593986 0 0 1 -8.65942,8.65942 8.6593986,8.6593986 0 0 1 -8.65942,-8.65942 8.6593986,8.6593986 0 0 1 8.65942,-8.65941 z"
       id="path920"
       inkscape:connector-curvature="0" />
    <path
       style="fill:#ffffff;fill-opacity:1;stroke:#ffffff;stroke-width:2.64583325;stroke-miterlimit:4;stroke-dasharray:none;stroke-opacity:1"
       d="m 199.56846,430.23549 c -6.19919,0 -11.19002,4.99081 -11.19002,11.19002 v 10.49856 c 0,6.19919 4.99083,11.18952 11.19002,11.18952 h 10.49858 c 6.19919,0 11.19001,-4.99033 11.19001,-11.18952 v -10.49856 c 0,-6.19921 -4.99082,-11.19002 -11.19001,-11.19002 z m 14.39964,2.30063 a 4.233333,4.2333335 0 0 1 4.23333,4.23333 4.233333,4.2333335 0 0 1 -4.23333,4.23334 4.233333,4.2333335 0 0 1 -4.23334,-4.23334 4.233333,4.2333335 0 0 1 4.23334,-4.23333 z m -9.15035,5.47926 a 8.6593986,8.6593986 0 0 1 8.65942,8.65941 8.6593986,8.6593986 0 0 1 -8.65942,8.65942 8.6593986,8.6593986 0 0 1 -8.65942,-8.65942 8.6593986,8.6593986 0 0 1 8.65942,-8.65941 z"
       id="path947"
       inkscape:connector-curvature="0" />
    <path
       inkscape:connector-curvature="0"
       id="path953"
       d="m 297.22834,136.87673 c -6.19919,0 -11.19002,4.99081 -11.19002,11.19002 v 10.49856 c 0,6.19919 4.99083,11.18952 11.19002,11.18952 h 10.49858 c 6.19919,0 11.19001,-4.99033 11.19001,-11.18952 v -10.49856 c 0,-6.19921 -4.99082,-11.19002 -11.19001,-11.19002 z m 14.39964,2.30063 a 4.233333,4.2333335 0 0 1 4.23333,4.23333 4.233333,4.2333335 0 0 1 -4.23333,4.23334 4.233333,4.2333335 0 0 1 -4.23334,-4.23334 4.233333,4.2333335 0 0 1 4.23334,-4.23333 z m -9.15035,5.47926 a 8.6593986,8.6593986 0 0 1 8.65942,8.65941 8.6593986,8.6593986 0 0 1 -8.65942,8.65942 8.6593986,8.6593986 0 0 1 -8.65942,-8.65942 8.6593986,8.6593986 0 0 1 8.65942,-8.65941 z"
       style="fill:#333333;fill-opacity:1;stroke:#333333;stroke-width:2.64583325;stroke-miterlimit:4;stroke-dasharray:none;stroke-opacity:1" />
    <rect
       style="fill:#cccccc;fill-opacity:1;stroke:#333333;stroke-width:1.52742791;stroke-miterlimit:4;stroke-dasharray:none;stroke-opacity:1"
       id="rect830"
       width="29.806623"
       height="29.696856"
       x="120.21667"
       y="212.61307"
       ry="8.2727871" />
    <path
       inkscape:connector-curvature="0"
       id="path828"
       d="m 129.69892,211.61935 c -6.19919,0 -11.19002,4.99081 -11.19002,11.19002 v 10.49856 c 0,6.19919 4.99083,11.18952 11.19002,11.18952 h 10.49858 c 6.19919,0 11.19001,-4.99033 11.19001,-11.18952 v -10.49856 c 0,-6.19921 -4.99082,-11.19002 -11.19001,-11.19002 z m 14.39964,2.30063 a 4.233333,4.2333335 0 0 1 4.23333,4.23333 4.233333,4.2333335 0 0 1 -4.23333,4.23334 4.233333,4.2333335 0 0 1 -4.23334,-4.23334 4.233333,4.2333335 0 0 1 4.23334,-4.23333 z m -9.15035,5.47926 a 8.6593986,8.6593986 0 0 1 8.65942,8.65941 8.6593986,8.6593986 0 0 1 -8.65942,8.65942 8.6593986,8.6593986 0 0 1 -8.65942,-8.65942 8.6593986,8.6593986 0 0 1 8.65942,-8.65941 z"
       style="fill:#ffffff;fill-opacity:1;stroke:#ffffff;stroke-width:2.64583325;stroke-miterlimit:4;stroke-dasharray:none;stroke-opacity:1" />
    <g
       id="g844"
       transform="translate(-50.595121,-57.822995)">
      <rect
         style="fill:#cccccc;fill-opacity:1;stroke:#333333;stroke-width:1.52742779;stroke-miterlimit:4;stroke-dasharray:none;stroke-opacity:1"
         id="rect832"
         width="29.806622"
         height="29.696854"
         x="179.64584"
         y="213.21539"
         ry="8.2727861" />
      <path
         inkscape:connector-curvature="0"
         id="path834"
         d="m 188.52579,212.22167 c -6.19919,0 -11.19002,4.99081 -11.19002,11.19002 v 10.49856 c 0,6.19919 4.99083,11.18952 11.19002,11.18952 h 10.49858 c 6.19919,0 11.19001,-4.99033 11.19001,-11.18952 v -10.49856 c 0,-6.19921 -4.99082,-11.19002 -11.19001,-11.19002 z m 14.39964,2.30063 a 4.233333,4.2333335 0 0 1 4.23333,4.23333 4.233333,4.2333335 0 0 1 -4.23333,4.23334 4.233333,4.2333335 0 0 1 -4.23334,-4.23334 4.233333,4.2333335 0 0 1 4.23334,-4.23333 z m -9.15035,5.47926 a 8.6593986,8.6593986 0 0 1 8.65942,8.65941 8.6593986,8.6593986 0 0 1 -8.65942,8.65942 8.6593986,8.6593986 0 0 1 -8.65942,-8.65942 8.6593986,8.6593986 0 0 1 8.65942,-8.65941 z"
         style="fill:#ffffff;fill-opacity:1;stroke:#ffffff;stroke-width:2.64583325;stroke-miterlimit:4;stroke-dasharray:none;stroke-opacity:1" />
    </g>
  </g>
</svg>
