<?xml version="1.0" encoding="UTF-8" standalone="no"?>
<!-- Generator: Adobe Illustrator 19.0.0, SVG Export Plug-In . SVG Version: 6.00 Build 0)  -->

<svg
   xmlns:dc="http://purl.org/dc/elements/1.1/"
   xmlns:cc="http://creativecommons.org/ns#"
   xmlns:rdf="http://www.w3.org/1999/02/22-rdf-syntax-ns#"
   xmlns:svg="http://www.w3.org/2000/svg"
   xmlns="http://www.w3.org/2000/svg"
   xmlns:sodipodi="http://sodipodi.sourceforge.net/DTD/sodipodi-0.dtd"
   xmlns:inkscape="http://www.inkscape.org/namespaces/inkscape"
   version="1.1"
   id="Capa_1"
   x="0px"
   y="0px"
   viewBox="0 0 374.8689 374.86887"
   xml:space="preserve"
   sodipodi:docname="frame2.svg"
   inkscape:version="0.92.2 5c3e80d, 2017-08-06"
   width="374.8689"
   height="374.86887"><metadata
     id="metadata51"><rdf:RDF><cc:Work
         rdf:about=""><dc:format>image/svg+xml</dc:format><dc:type
           rdf:resource="http://purl.org/dc/dcmitype/StillImage" /><dc:title /></cc:Work></rdf:RDF></metadata><defs
     id="defs49" /><sodipodi:namedview
     pagecolor="#ffffff"
     bordercolor="#666666"
     borderopacity="1"
     objecttolerance="10"
     gridtolerance="10"
     guidetolerance="10"
     inkscape:pageopacity="0"
     inkscape:pageshadow="2"
     inkscape:window-width="1440"
     inkscape:window-height="851"
     id="namedview47"
     showgrid="false"
     inkscape:zoom="0.14056677"
     inkscape:cx="2095.072"
     inkscape:cy="-945.41245"
     inkscape:window-x="0"
     inkscape:window-y="1"
     inkscape:window-maximized="1"
     inkscape:current-layer="Capa_1"
     inkscape:snap-bbox="false" /><g
     id="g16"
     transform="translate(17.140678,-71.985451)" /><g
     id="g18"
     transform="translate(17.140678,-71.985451)" /><g
     id="g20"
     transform="translate(17.140678,-71.985451)" /><g
     id="g22"
     transform="translate(17.140678,-71.985451)" /><g
     id="g24"
     transform="translate(17.140678,-71.985451)" /><g
     id="g26"
     transform="translate(17.140678,-71.985451)" /><g
     id="g28"
     transform="translate(17.140678,-71.985451)" /><g
     id="g30"
     transform="translate(17.140678,-71.985451)" /><g
     id="g32"
     transform="translate(17.140678,-71.985451)" /><g
     id="g34"
     transform="translate(17.140678,-71.985451)" /><g
     id="g36"
     transform="translate(17.140678,-71.985451)" /><g
     id="g38"
     transform="translate(17.140678,-71.985451)" /><g
     id="g40"
     transform="translate(17.140678,-71.985451)" /><g
     id="g42"
     transform="translate(17.140678,-71.985451)" /><g
     id="g44"
     transform="translate(17.140678,-71.985451)" /><rect
     style="fill:#0711a4;fill-opacity:1;stroke:none;stroke-width:30.50509071;stroke-miterlimit:4;stroke-dasharray:none;stroke-opacity:1"
     id="rect833"
     width="6758.7563"
     height="3596.0537"
     x="-882.71326"
     y="717.92291"
     ry="109.41422" /><g
     id="g845"
     style="fill:#ffffff;fill-opacity:1;stroke:#ffffff;stroke-width:9;stroke-miterlimit:4;stroke-dasharray:none;stroke-opacity:1"
     transform="translate(-518.08103,923.07209)"><g
       id="g843"
       style="fill:#ffffff;fill-opacity:1;stroke:#ffffff;stroke-width:9;stroke-miterlimit:4;stroke-dasharray:none;stroke-opacity:1"><path
         inkscape:connector-curvature="0"
         d="M 332.6,16.4 C 322.2,6 308.2,0 292.6,0 h -54 v 21.6 h 53.6 c 9.6,0 18.4,4 24.8,10.4 6.4,6.4 10.4,15.2 10.4,24.8 V 114 H 349 V 56.4 c 0,-15.6 -6.4,-29.6 -16.4,-40 z"
         id="path835"
         style="fill:#ffffff;fill-opacity:1;stroke:#ffffff;stroke-width:9;stroke-miterlimit:4;stroke-dasharray:none;stroke-opacity:1" /><path
         inkscape:connector-curvature="0"
         d="M 35.4,320 C 29,313.6 25,304.8 25,295.2 V 238.4 H 3.4 v 57.2 c 0,15.6 6.4,29.6 16.4,40 10.8,10 24.8,16.4 40.4,16.4 h 53.6 V 330.4 H 60.2 c -9.6,0 -18.4,-4 -24.8,-10.4 z"
         id="path837"
         style="fill:#ffffff;fill-opacity:1;stroke:#ffffff;stroke-width:9;stroke-miterlimit:4;stroke-dasharray:none;stroke-opacity:1" /><path
         inkscape:connector-curvature="0"
         d="m 327,295.6 c 0,9.6 -4,18.4 -10.4,24.8 -6.4,6.4 -15.2,10.4 -24.8,10.4 h -53.2 v 21.6 h 53.6 c 15.6,0 29.6,-6.4 40,-16.4 10.4,-10.4 16.4,-24.4 16.4,-40 V 238.4 H 327 Z"
         id="path839"
         style="fill:#ffffff;fill-opacity:1;stroke:#ffffff;stroke-width:9;stroke-miterlimit:4;stroke-dasharray:none;stroke-opacity:1" /><path
         inkscape:connector-curvature="0"
         d="M 20.2,16.4 C 9.8,26.8 3.8,40.8 3.8,56.4 v 57.2 H 25.4 V 56.4 C 25.4,46.8 29.4,38 35.8,31.6 42.2,25.2 51,21.2 60.6,21.2 h 53.6 V 0 h -54 C 44.6,0 30.6,6.4 20.2,16.4 Z"
         id="path841"
         style="fill:#ffffff;fill-opacity:1;stroke:#ffffff;stroke-width:9;stroke-miterlimit:4;stroke-dasharray:none;stroke-opacity:1" /></g></g><g
     style="fill:#ffffff;fill-opacity:1;stroke:none;stroke-opacity:1"
     id="g867"
     transform="translate(91.489031,919.55349)"><g
       style="fill:#ffffff;fill-opacity:1;stroke:none;stroke-opacity:1"
       id="g865"><g
         style="fill:#ffffff;fill-opacity:1;stroke:none;stroke-opacity:1"
         id="g863"><path
           style="fill:#ffffff;fill-opacity:1;stroke:none;stroke-opacity:1"
           id="path855"
           d="M 332.6,16.4 C 322.2,6 308.2,0 292.6,0 h -54 v 21.6 h 53.6 c 9.6,0 18.4,4 24.8,10.4 6.4,6.4 10.4,15.2 10.4,24.8 V 114 H 349 V 56.4 c 0,-15.6 -6.4,-29.6 -16.4,-40 z"
           inkscape:connector-curvature="0" /><path
           style="fill:#ffffff;fill-opacity:1;stroke:none;stroke-opacity:1"
           id="path857"
           d="M 35.4,320 C 29,313.6 25,304.8 25,295.2 V 238.4 H 3.4 v 57.2 c 0,15.6 6.4,29.6 16.4,40 10.8,10 24.8,16.4 40.4,16.4 h 53.6 V 330.4 H 60.2 c -9.6,0 -18.4,-4 -24.8,-10.4 z"
           inkscape:connector-curvature="0" /><path
           style="fill:#ffffff;fill-opacity:1;stroke:none;stroke-opacity:1"
           id="path859"
           d="m 327,295.6 c 0,9.6 -4,18.4 -10.4,24.8 -6.4,6.4 -15.2,10.4 -24.8,10.4 h -53.2 v 21.6 h 53.6 c 15.6,0 29.6,-6.4 40,-16.4 10.4,-10.4 16.4,-24.4 16.4,-40 V 238.4 H 327 Z"
           inkscape:connector-curvature="0" /><path
           style="fill:#ffffff;fill-opacity:1;stroke:none;stroke-opacity:1"
           id="path861"
           d="M 20.2,16.4 C 9.8,26.8 3.8,40.8 3.8,56.4 v 57.2 H 25.4 V 56.4 C 25.4,46.8 29.4,38 35.8,31.6 42.2,25.2 51,21.2 60.6,21.2 h 53.6 V 0 h -54 C 44.6,0 30.6,6.4 20.2,16.4 Z"
           inkscape:connector-curvature="0" /></g></g></g><g
     id="g1012"
     transform="matrix(0.44875523,0,0,0.44875523,-180.05225,1417.0267)"><path
       id="path978"
       d="m -367.58539,2194.4838 v -122.3811 c 0,-57.7147 46.46353,-104.1783 104.17831,-104.1783 v 0 h 122.381"
       style="fill:#bd11a4;fill-opacity:0.03553299;stroke:#ffffff;stroke-width:50;stroke-miterlimit:4;stroke-dasharray:none;stroke-opacity:1"
       inkscape:connector-curvature="0" /><path
       id="path974"
       d="m -141.02608,2867.9244 h -122.381 c -57.71478,0 -104.17831,-46.4635 -104.17831,-104.1783 v -122.3829"
       style="fill:#bd11a4;fill-opacity:0.03553299;stroke:#ffffff;stroke-width:50;stroke-miterlimit:4;stroke-dasharray:none;stroke-opacity:1"
       inkscape:connector-curvature="0" /><path
       id="path970"
       d="m 532.41461,2641.3632 v 122.3829 c 0,57.7148 -46.46352,104.1783 -104.1783,104.1783 l -122.38295,1e-4"
       style="fill:#bd11a4;fill-opacity:0.03553299;stroke:#ffffff;stroke-width:50;stroke-miterlimit:4;stroke-dasharray:none;stroke-opacity:1"
       inkscape:connector-curvature="0" /><path
       id="path966"
       d="m 305.85336,1967.9244 h 122.38295 c 57.71478,0 104.1783,46.4636 104.1783,104.1783 v 122.3811"
       style="fill:#bd11a4;fill-opacity:0.03553299;stroke:#ffffff;stroke-width:50;stroke-miterlimit:4;stroke-dasharray:none;stroke-opacity:1"
       inkscape:connector-curvature="0" /></g><g
     id="g1083"
     style="stroke:#ffffff;stroke-width:60;stroke-miterlimit:4;stroke-dasharray:none;stroke-opacity:1;fill:#000000;fill-opacity:0"
     transform="matrix(0.39048839,0,0,0.39048839,-652.63707,-690.24587)"><path
       id="path1077"
       d="m 1701.3355,2068.586 -10e-5,-46.1524 c 0,-124.5314 100.2546,-224.786 224.7861,-224.786 v 0 h 46.1524"
       style="fill:#000000;fill-opacity:0;stroke:#ffffff;stroke-width:60;stroke-miterlimit:4;stroke-dasharray:none;stroke-opacity:1"
       inkscape:connector-curvature="0" /><path
       id="path1073"
       d="m 1972.2739,2697.6476 h -46.1524 c -124.5315,0 -224.7861,-100.2546 -224.7861,-224.7861 l 10e-5,-46.1523"
       style="fill:#000000;fill-opacity:0;stroke:#ffffff;stroke-width:60;stroke-miterlimit:4;stroke-dasharray:none;stroke-opacity:1"
       inkscape:connector-curvature="0" /><path
       id="path1069"
       d="m 2601.3355,2426.7092 -1e-4,46.1523 c 0,124.5315 -100.2545,224.7861 -224.786,224.7861 h -46.1523"
       style="fill:#000000;fill-opacity:0;stroke:#ffffff;stroke-width:60;stroke-miterlimit:4;stroke-dasharray:none;stroke-opacity:1"
       inkscape:connector-curvature="0" /><path
       id="path1065"
       d="m 2330.397,1797.6476 h 46.1524 c 124.5315,0 224.786,100.2546 224.786,224.786 l 1e-4,46.1524"
       style="fill:#000000;fill-opacity:0;stroke:#ffffff;stroke-width:60;stroke-miterlimit:4;stroke-dasharray:none;stroke-opacity:1"
       inkscape:connector-curvature="0" /></g><path
     inkscape:connector-curvature="0"
     id="path933"
     d="m 1218.6362,372.48064 v 348.0938 H 870.54243 v 446.87896 h 348.09377 v 348.0937 h 446.8789 v -348.0937 h 348.0938 V 720.57444 h -348.0938 v -348.0938 z"
     style="fill:#df11a4;fill-opacity:0.00943394;stroke:#ffffff;stroke-width:46.6820488;stroke-miterlimit:4;stroke-dasharray:none;stroke-opacity:1" /><path
     id="path998"
     d="m -764.90838,1850.7189 v -122.3811 c 0,-57.7147 46.46353,-104.1783 104.17831,-104.1783 v 0 h 122.381"
     style="fill:#bd11a4;fill-opacity:0.03553299;stroke:#ffffff;stroke-width:50;stroke-miterlimit:4;stroke-dasharray:none;stroke-opacity:1"
     inkscape:connector-curvature="0" /><rect
     style="fill:#df11a4;fill-opacity:0.00943394;stroke:#ffffff;stroke-width:42;stroke-miterlimit:4;stroke-dasharray:none;stroke-opacity:1"
     id="rect1042"
     width="900"
     height="900"
     x="4048.5459"
     y="1133.8615"
     ry="224.78604" /><rect
     style="fill:#df11a4;fill-opacity:0.00943394;stroke:#ffffff;stroke-width:41.87758255;stroke-miterlimit:4;stroke-dasharray:none;stroke-opacity:1"
     id="rect1044"
     width="358.12241"
     height="1147.8713"
     x="4319.4849"
     y="1009.9257"
     ry="0" /><rect
     ry="0"
     y="-5072.4814"
     x="1404.8003"
     height="1147.8713"
     width="358.12241"
     id="rect1046"
     style="fill:#df11a4;fill-opacity:0.00943394;stroke:#ffffff;stroke-width:41.87758255;stroke-miterlimit:4;stroke-dasharray:none;stroke-opacity:1"
     transform="rotate(90)" /><g
     style="stroke:#ffffff;stroke-width:60;stroke-miterlimit:4;stroke-dasharray:none;stroke-opacity:1"
     id="g1093"
     transform="matrix(0.37620297,0,0,0.37620297,1885.4743,2603.5121)"><path
       style="fill:none;fill-opacity:0.00943394;stroke:#ffffff;stroke-width:60;stroke-miterlimit:4;stroke-dasharray:none;stroke-opacity:1"
       d="m 1701.3355,2068.586 -10e-5,-46.1524 c 0,-124.5314 100.2546,-224.786 224.7861,-224.786 v 0 h 46.1524"
       id="path1085"
       inkscape:connector-curvature="0" /><path
       style="fill:none;fill-opacity:0.00943394;stroke:#ffffff;stroke-width:60;stroke-miterlimit:4;stroke-dasharray:none;stroke-opacity:1"
       d="m 1972.2739,2697.6476 h -46.1524 c -124.5315,0 -224.7861,-100.2546 -224.7861,-224.7861 l 10e-5,-46.1523"
       id="path1087"
       inkscape:connector-curvature="0" /><path
       style="fill:none;fill-opacity:0.00943394;stroke:#ffffff;stroke-width:60;stroke-miterlimit:4;stroke-dasharray:none;stroke-opacity:1"
       d="m 2601.3355,2426.7092 -1e-4,46.1523 c 0,124.5315 -100.2545,224.7861 -224.786,224.7861 h -46.1523"
       id="path1089"
       inkscape:connector-curvature="0" /><path
       style="fill:none;fill-opacity:0.00943394;stroke:#ffffff;stroke-width:60;stroke-miterlimit:4;stroke-dasharray:none;stroke-opacity:1"
       d="m 2330.397,1797.6476 h 46.1524 c 124.5315,0 224.786,100.2546 224.786,224.786 l 1e-4,46.1524"
       id="path1091"
       inkscape:connector-curvature="0" /></g></svg>