<?xml version="1.0" encoding="UTF-8" standalone="no"?>
<!-- Created with Inkscape (http://www.inkscape.org/) -->

<svg
   xmlns:dc="http://purl.org/dc/elements/1.1/"
   xmlns:cc="http://creativecommons.org/ns#"
   xmlns:rdf="http://www.w3.org/1999/02/22-rdf-syntax-ns#"
   xmlns:svg="http://www.w3.org/2000/svg"
   xmlns="http://www.w3.org/2000/svg"
   xmlns:xlink="http://www.w3.org/1999/xlink"
   version="1.1"
   width="135"
   height="100"
   id="svg4810">
  <defs
     id="defs4812">
    <linearGradient
       id="linearGradient5630">
      <stop
         id="stop5626"
         style="stop-color:#ff50aa;stop-opacity:1"
         offset="0" />
      <stop
         id="stop5628"
         style="stop-color:#f481ff;stop-opacity:1"
         offset="1" />
    </linearGradient>
    <linearGradient
       x1="-508.63937"
       y1="5213.8218"
       x2="-68.584618"
       y2="5001.5342"
       id="linearGradient4833"
       xlink:href="#linearGradient5630"
       gradientUnits="userSpaceOnUse"
       gradientTransform="matrix(0.2660597,0,0,0.26666094,151.94567,-342.94846)" />
  </defs>
  <metadata
     id="metadata4815">
    <rdf:RDF>
      <cc:Work
         rdf:about="">
        <dc:format>image/svg+xml</dc:format>
        <dc:type
           rdf:resource="http://purl.org/dc/dcmitype/StillImage" />
        <dc:title></dc:title>
      </cc:Work>
    </rdf:RDF>
  </metadata>
  <g
     transform="translate(0,-952.36218)"
     id="layer1">
    <path
       d="m 51.47905,952.36203 c -23.55763,0 -34.94539,12.44428 -34.94539,34.0483 0,0.0735 0,3.28089 0,3.76871 -4.190749,0.0407 -8.4462693,0.0775 -12.5648993,0.13869 0,0 -3.95858,0 -3.95858,3.50911 0,3.50213 3.95858,3.50908 3.95858,3.50908 H 16.54422 c 0.003,2.05539 0,4.07038 0,6.90548 H 3.9585507 c 0,0 -3.95854999999999,0.049 -3.95854999999999,3.563 0,3.5127 3.95854999999999,3.5638 3.95854999999999,3.5638 0,0 7.3261803,0.069 12.5966693,0.1224 0.0406,16.9017 0.0449,34.8595 0.0449,36.0111 0,2.0125 1.24066,4.6607 3.82946,4.6607 2.58923,0 3.8299,-2.6482 3.8299,-4.6607 v -35.9364 c 3.42419,0.041 3.75695,0.041 6.88421,0.07 v 35.869 c 0,2.0314 1.0761,4.6607 3.915,4.6607 2.84054,0 3.91499,-2.6293 3.91499,-4.6607 0,-0.8172 0.0693,-18.7513 0.13044,-35.7918 1.79582,0 6.57431,0.065 6.63091,0.065 2.68859,0 3.42745,2.0334 4.58744,5.1779 l 10.52596,28.4634 c 0.003,0 2.62911,6.9435 9.59278,6.9435 6.32582,0 9.59159,-3.3874 11.80407,-9.452 2.17946,-5.9715 4.5064,-12.101 5.4595,-14.5977 0.285,-0.7438 0.44722,-2.2481 0.44722,-2.2481 0,0 0.16282,1.5182 0.4806,2.3555 0.90015,2.3738 3.034,7.9779 6.17065,16.0476 2.36766,6.0924 7.18809,7.8947 9.92761,7.8947 5.17234,0 8.91789,-2.5543 12.31319,-10.5897 4.91897,-11.6446 9.76955,-23.1288 14.67797,-35.7045 1.61697,-4.1414 3.27798,-6.81405 3.27798,-12.8027 0,-1.44468 -1.44145,-3.39233 -3.91664,-3.39233 -2.47477,0 -3.9154,1.94805 -3.9154,3.39154 0,4.04588 -1.69195,8.15099 -3.14681,11.71809 l -15.5594,38.135 c -0.61829,1.4883 -1.87157,2.128 -3.19285,2.1227 -1.30216,0 -2.53097,-0.6344 -3.15213,-2.0954 l -12.34495,-30.429 -1.63858,-4.4863 -1.64021,4.4863 -12.45775,30.6564 c -0.65822,1.5439 -1.98848,2.1648 -3.35659,2.0917 -1.28139,-0.07 -2.45525,-0.7352 -3.02056,-2.2015 l -11.40286,-31.359 c -2.13345,-5.8686 -4.65059,-7.659 -10.38828,-7.659 h -6.73557 c 0,-2.7645 0,-4.98565 0.0406,-6.90551 h 8.69834 c 7.11518,0 11.74011,5.55141 13.90821,11.96171 1.29156,3.8161 7.68416,20.1463 7.68416,20.1463 l 1.65246,4.9415 1.65241,-4.8779 c 0,0 6.86346,-17.0331 12.22438,-30.10357 0.46842,-1.14384 1.2541,-2.43832 3.09797,-2.45626 2.06093,0 2.78879,1.42307 3.21362,2.46036 l 12.2973,30.31387 1.6406,4.6635 1.64022,-4.6709 10.8925,-26.8595 c 2.18884,-5.39787 2.56641,-6.44251 2.56641,-9.59482 0,-1.50512 -1.11111,-3.39233 -3.95084,-3.39233 -2.84011,0 -3.95083,2.15419 -3.95083,3.39233 0,1.6586 -0.14265,3.01147 -1.02722,5.57183 -0.65455,1.89909 -4.35733,11.35799 -5.78248,14.99039 -0.34623,0.8842 -0.55802,1.9292 -0.55802,1.9292 0,0 -0.19152,-1.0511 -0.53802,-2.0023 -1.10504,-3.0372 -3.77409,-10.2035 -6.74006,-16.90656 -1.45652,-3.29108 -4.58504,-6.92591 -9.62297,-7.06552 -5.26111,0.1142 -7.95014,3.50541 -9.81395,7.81095 -0.68915,1.59247 -4.82125,11.79963 -6.3637,15.61123 -0.36251,0.8912 -0.57961,2.2991 -0.57961,2.2991 0,0 -0.17504,-1.3573 -0.43907,-2.1138 -0.72703,-2.0684 -2.14485,-6.1196 -2.58272,-7.4831 -1.28218,-3.9989 -5.3552,-15.79332 -20.61605,-15.79332 0,0 -3.34192,0 -8.57658,0 0,-0.2979 0,-3.12006 0,-3.12006 0,-8.50491 4.58054,-13.48687 12.26797,-13.48687 h 10.57279 c 0,0 3.55859,-0.22443 3.55859,-3.48052 0,-3.25437 -3.55859,-3.48011 -3.55859,-3.48011 H 51.46645 c -12.32091,0 -20.31791,7.36355 -20.31791,19.985 v 3.59319 c -2.18801,0 -4.47585,0 -6.88424,0.0407 v -3.71893 c 0,-15.57781 6.82601,-26.73985 27.20215,-26.73985 h 10.57279 c 0,0 3.55859,-0.0817 3.55859,-3.65442 0,-3.57237 -3.55859,-3.65362 -3.55859,-3.65362 z m 36.69271,37.41614 c 0.0938,-0.003 0.18329,0 0.27708,0 h -0.52503 c 0.0815,0 0.16709,0.003 0.24835,0 z m -0.24835,0 c 0,0 -0.0406,0 -0.0529,0 v 0 z m -63.64725,7.56439 h 6.88424 v 6.90514 h -6.88424 z"
       id="path5632"
       style="fill:url(#linearGradient4833);fill-opacity:1;fill-rule:nonzero;stroke:none" />
  </g>
</svg>
