<?xml version="1.0" standalone="no"?>
<!DOCTYPE svg PUBLIC "-//W3C//DTD SVG 20010904//EN"
 "http://www.w3.org/TR/2001/REC-SVG-20010904/DTD/svg10.dtd">
<svg version="1.0" xmlns="http://www.w3.org/2000/svg"
 width="1599.000000pt" height="272.000000pt" viewBox="0 0 1599.000000 272.000000"
 preserveAspectRatio="xMidYMid meet">
<metadata>
Created by potrace 1.16, written by Peter Selinger 2001-2019
</metadata>
<g transform="translate(0.000000,272.000000) scale(0.100000,-0.100000)"
fill="#000000" stroke="none">
<path d="M6872 2686 l-37 -34 0 -1291 0 -1291 32 -31 c42 -43 120 -51 171 -19
66 41 62 -37 62 1340 0 1358 3 1293 -55 1338 -21 16 -41 22 -81 22 -48 0 -59
-4 -92 -34z"/>
<path d="M7509 2703 c-63 -39 -59 55 -59 -1348 l0 -1277 39 -39 c34 -35 44
-39 87 -39 61 0 110 28 130 75 12 29 14 219 14 1285 0 1366 3 1295 -58 1339
-37 26 -115 28 -153 4z"/>
<path d="M1014 2375 c-152 -27 -240 -63 -350 -141 -173 -123 -274 -363 -274
-656 l0 -88 -147 0 c-213 0 -243 -12 -243 -98 0 -71 15 -77 216 -80 l174 -3 0
-80 0 -79 -169 0 c-155 0 -170 -2 -195 -21 -34 -27 -37 -98 -5 -127 29 -27 61
-32 225 -32 l143 0 3 -449 c3 -439 3 -450 24 -478 42 -56 106 -56 148 0 21 28
21 39 24 478 l3 449 74 0 75 0 0 -439 c0 -295 4 -448 11 -470 18 -50 79 -74
132 -50 52 24 52 20 55 507 l3 454 87 -7 c48 -4 95 -9 104 -11 26 -7 61 -91
203 -477 112 -304 134 -354 169 -394 52 -60 104 -83 185 -83 83 0 132 15 182
58 50 43 79 101 164 330 38 100 71 182 75 182 3 0 42 -93 86 -207 43 -115 92
-228 109 -253 18 -27 52 -58 85 -77 47 -29 63 -33 124 -33 111 0 182 46 249
161 28 47 267 616 385 915 107 271 116 371 35 409 -30 15 -42 15 -74 6 -49
-15 -65 -40 -73 -114 -4 -32 -15 -86 -27 -119 -37 -111 -421 -1043 -437 -1060
-20 -24 -84 -24 -104 0 -15 17 -331 784 -343 835 -9 36 -19 34 -32 -5 -5 -18
-81 -208 -167 -423 -162 -399 -181 -435 -230 -435 -50 0 -63 26 -210 431 -80
218 -153 414 -164 435 -47 91 -99 114 -262 114 l-120 0 0 81 0 81 138 -4 c126
-3 141 -5 194 -31 63 -31 127 -97 163 -167 21 -42 103 -252 211 -545 25 -66
47 -127 51 -135 3 -9 14 11 28 50 55 161 322 797 342 818 27 27 53 28 82 5 19
-16 282 -642 346 -823 18 -52 24 -61 30 -45 4 11 55 137 112 280 217 540 235
589 243 644 10 76 -6 115 -54 131 -44 14 -88 6 -112 -22 -11 -11 -24 -50 -31
-91 -7 -40 -46 -160 -90 -273 l-77 -201 -47 121 c-86 225 -139 343 -175 385
-90 104 -234 119 -334 34 -46 -40 -90 -127 -186 -365 -32 -81 -61 -148 -64
-148 -3 0 -27 64 -55 142 -56 159 -98 232 -172 298 -103 92 -195 120 -402 120
l-144 0 6 78 c8 100 20 140 60 199 23 35 48 56 91 78 59 29 63 30 247 35 217
6 229 10 229 86 0 34 -5 47 -26 63 -25 20 -40 21 -218 21 -214 0 -269 -9 -368
-62 -139 -74 -217 -228 -218 -425 l0 -73 -75 0 -75 0 0 100 c0 321 136 519
407 591 64 18 117 22 301 26 201 5 225 7 247 25 21 16 25 28 25 68 0 41 -4 52
-26 69 -25 20 -39 21 -243 20 -128 0 -245 -6 -287 -14z m-274 -1145 l0 -80
-75 0 -75 0 0 80 0 80 75 0 75 0 0 -80z"/>
<path d="M5001 2359 c-298 -50 -512 -271 -561 -579 -5 -36 -10 -118 -10 -182
l0 -116 -135 -4 -135 -3 -31 -31 c-36 -36 -43 -86 -20 -141 24 -59 62 -73 200
-73 l121 0 0 -560 c0 -618 -1 -611 62 -650 51 -32 129 -24 171 19 l32 31 3
580 2 580 163 0 c143 0 166 2 194 20 17 10 37 29 44 42 17 32 14 104 -6 134
-29 45 -70 54 -240 54 l-155 0 0 113 c0 192 34 300 121 392 95 101 206 135
436 135 100 0 123 3 147 19 38 25 55 57 55 101 1 47 -17 80 -58 107 -32 22
-43 23 -190 22 -86 -1 -180 -5 -210 -10z"/>
<path d="M10690 1500 c-19 -5 -46 -21 -60 -37 -15 -16 -108 -231 -225 -515
-195 -477 -200 -487 -212 -455 -7 17 -71 191 -142 386 -72 195 -145 379 -163
409 -45 73 -120 147 -183 178 -141 68 -265 23 -265 -96 0 -73 59 -130 133
-130 33 0 73 -34 99 -83 12 -23 110 -283 217 -577 186 -508 198 -535 230 -557
40 -27 107 -31 151 -8 17 9 38 32 48 53 10 20 106 250 212 509 107 260 197
470 201 465 3 -4 95 -225 205 -492 226 -552 224 -550 317 -550 61 0 96 21 123
73 38 72 413 988 432 1052 76 263 49 375 -93 375 -85 0 -135 -58 -135 -157 0
-26 -6 -73 -14 -103 -10 -42 -206 -541 -299 -758 l-14 -33 -203 496 c-174 423
-209 501 -237 526 -19 16 -40 29 -48 29 -7 0 -19 2 -27 4 -7 2 -29 0 -48 -4z"/>
<path d="M5617 1469 c-259 -63 -453 -256 -524 -519 -27 -101 -24 -321 5 -425
72 -250 260 -434 512 -502 91 -25 329 -25 420 0 230 63 422 240 493 455 149
450 -85 898 -520 996 -100 22 -285 20 -386 -5z m318 -244 c139 -37 249 -128
310 -257 119 -251 20 -551 -219 -668 -331 -161 -711 105 -682 480 23 311 301
520 591 445z"/>
<path d="M8475 1475 c-229 -50 -419 -207 -508 -421 -42 -102 -52 -160 -52
-314 0 -124 4 -156 23 -220 100 -318 342 -503 678 -517 251 -11 445 63 598
228 145 157 212 377 186 608 -36 317 -240 554 -544 631 -94 24 -285 26 -381 5z
m298 -250 c168 -44 290 -163 341 -335 24 -79 22 -218 -4 -301 -69 -225 -292
-367 -521 -332 -283 44 -462 322 -394 612 62 262 323 423 578 356z"/>
<path d="M12542 1470 c-262 -69 -460 -272 -523 -538 -28 -118 -23 -330 11
-437 38 -122 87 -203 175 -291 66 -68 96 -89 175 -127 128 -62 227 -81 379
-74 141 6 208 23 328 82 101 50 237 166 267 229 43 91 0 183 -95 201 -53 10
-87 -10 -169 -94 -165 -170 -362 -213 -556 -122 -107 50 -207 166 -239 279
l-6 22 308 0 c169 0 340 5 379 10 209 27 344 174 344 374 -1 226 -180 434
-423 491 -89 21 -264 19 -355 -5z m349 -262 c30 -14 68 -37 86 -52 65 -55 94
-167 60 -233 -32 -60 -49 -63 -420 -63 l-335 0 9 43 c35 155 153 278 310 322
82 23 221 15 290 -17z"/>
<path d="M14070 1475 c-173 -39 -339 -108 -374 -157 -26 -36 -27 -113 -1 -151
43 -67 116 -73 231 -21 185 84 341 113 429 80 54 -21 117 -89 133 -143 6 -21
14 -68 17 -105 l7 -68 -269 0 c-206 0 -282 -3 -326 -15 -169 -44 -290 -161
-332 -320 -42 -161 3 -328 118 -444 95 -95 216 -138 367 -128 138 9 260 63
374 167 l53 50 5 -63 c9 -109 51 -157 138 -157 53 0 95 22 117 63 17 29 18 72
18 527 0 492 0 495 -23 560 -51 140 -128 227 -260 293 l-85 42 -136 2 c-91 2
-158 -2 -201 -12z m430 -875 l0 -91 -36 -32 c-72 -63 -180 -139 -244 -172
-172 -86 -294 -66 -355 60 -24 47 -27 64 -22 111 7 64 43 133 88 165 59 42
101 48 342 48 l227 1 0 -90z"/>
<path d="M15142 1456 l-37 -34 0 -677 0 -677 37 -34 c33 -30 44 -34 92 -34 56
0 94 20 119 63 9 16 14 125 18 392 5 305 9 380 23 430 65 229 210 354 411 355
71 0 124 17 157 50 23 23 28 37 28 77 0 57 -16 84 -64 107 -43 20 -170 21
-242 2 -111 -29 -219 -111 -283 -212 l-31 -48 0 82 c0 138 -38 192 -136 192
-48 0 -59 -4 -92 -34z"/>
</g>
</svg>
